<svg xmlns="http://www.w3.org/2000/svg" xmlns:xlink="http://www.w3.org/1999/xlink" version="1.1" x="0px" y="0px" viewBox="0 0 20 25" xml:space="preserve"><g transform="translate(-450 -80)"><g xmlns="http://www.w3.org/2000/svg" xmlns:xlink="http://www.w3.org/1999/xlink"><path d="M470,88c0-1.866-1.285-3.421-3.014-3.862C466.988,84.091,467,84.047,467,84c0-1.656-1.344-3-3-3    c-0.896,0-1.69,0.4-2.24,1.023C460.751,80.789,459.218,80,457.5,80c-3.037,0-5.5,2.463-5.5,5.5c0,0.277,0.027,0.548,0.066,0.813    C450.851,86.862,450,88.079,450,89.5c0,1.934,1.566,3.5,3.5,3.5c0.761,0,1.459-0.249,2.033-0.661    C456.151,93.333,457.244,94,458.5,94c0.258,0,0.508-0.031,0.749-0.085C459.845,95.703,461.512,97,463.5,97    c2.485,0,4.5-2.015,4.5-4.5c0-0.342-0.045-0.671-0.117-0.991C469.137,90.834,470,89.524,470,88z"/><circle cx="456" cy="97" r="2"/><circle cx="451.5" cy="98.5" r="1.5"/></g></g><text x="0" y="35" fill="#000000" font-size="5px" font-weight="bold" font-family="'Helvetica Neue', Helvetica, Arial-Unicode, Arial, Sans-serif">Created by Hea Poh Lin</text><text x="0" y="40" fill="#000000" font-size="5px" font-weight="bold" font-family="'Helvetica Neue', Helvetica, Arial-Unicode, Arial, Sans-serif">from the Noun Project</text></svg>