<svg xmlns="http://www.w3.org/2000/svg" xmlns:xlink="http://www.w3.org/1999/xlink" version="1.1" x="0px" y="0px" viewBox="0 0 100 125" enable-background="new 0 0 100 100" xml:space="preserve"><g><path d="M76.5,79.4C76.5,79.4,76.5,79.4,76.5,79.4C76.5,79.4,76.5,79.5,76.5,79.4L76.5,79.4z"/><path d="M5,43c0,7.8,8.9,13.2,18.3,13.2c1.7,0,3.3-0.2,4.9-0.5c4.2,5.4,11.4,8.9,19.5,8.9c4.8,0,9.4-1.2,13.1-3.4   c1.5,0.8,3.2,1.1,5.1,1.1c3.6,0,7.2-1.7,8.6-4.6c0.5,0.1,0.9,0.1,1.2,0.1c10.3,0,19.2-7.4,19.2-17c0-8-6.2-14.3-14.1-16.3   c-1.8-8.1-13.4-13.3-25.5-13.3h-0.3c-6.2,0-11.9,1.2-16.4,3.5c-1.7-0.5-3.5-0.7-5.4-0.7c-10.1,0-18.9,6.9-18.9,16.2   c0,0.4,0,0.8,0.1,1C9.1,33.5,5,37.7,5,43L5,43z M8.8,43c0-4.6,4.7-7.5,9.9-9.1c-0.4-1.7-0.6-2.7-0.6-3.6c0-6.5,6.4-12.4,15.2-12.4   c1.8,0,3.6,0.3,5.8,0.9c5.2-2.7,10.7-3.8,16.2-3.8c6.8,0,21.4,2.7,22.3,12.8c7.5,1.3,13.7,5.9,13.7,13.1c0,7-6.6,13.2-15.4,13.2   c-1,0-2.1-0.2-4.1-0.4c-0.7,3.7-2.7,4.9-5.8,4.9c-1.8,0-3-0.4-5-1.8c-4.5,2.9-8.5,4.1-13.2,4.1c-7.1,0-13.6-2.9-17.9-9.4   c-2.7,0.7-4.5,0.9-6.5,0.9C14.6,52.5,8.8,47.6,8.8,43z"/><path d="M78,69.7c0-3.4-2.8-6.2-6.3-6.2c-3.4,0-6.2,2.8-6.2,6.2c0,3.4,2.8,6.3,6.2,6.3C75.1,76,78,73.1,78,69.7z M74.2,69.7   c0,1.3-1.1,2.5-2.5,2.5c-1.3,0-2.5-1.1-2.5-2.5c0-1.3,1.1-2.5,2.5-2.5C73,67.2,74.2,68.4,74.2,69.7z"/><path d="M80.4,83.4L80.4,83.4c2.2,0,4-1.8,4-3.9c0-2.2-1.8-4-4-4c-2.2,0-3.8,1.8-3.9,3.9C76.6,81.6,78.3,83.4,80.4,83.4z    M80.4,80.3c-0.5,0-0.9-0.4-0.9-0.9c0-0.6,0.4-1,0.9-1c0.5,0,1,0.4,1,0.9C81.4,80,80.9,80.3,80.4,80.3z"/></g><text x="0" y="115" fill="#000000" font-size="5px" font-weight="bold" font-family="'Helvetica Neue', Helvetica, Arial-Unicode, Arial, Sans-serif">Created by Liane Kirschner</text><text x="0" y="120" fill="#000000" font-size="5px" font-weight="bold" font-family="'Helvetica Neue', Helvetica, Arial-Unicode, Arial, Sans-serif">from the Noun Project</text></svg>