<svg xmlns="http://www.w3.org/2000/svg" xmlns:xlink="http://www.w3.org/1999/xlink" version="1.1" x="0px" y="0px" viewBox="0 0 100 125" enable-background="new 0 0 100 100" xml:space="preserve"><path d="M87.825,40.429c2.64-2.588,4.279-6.193,4.279-10.182c0-7.877-6.386-14.262-14.262-14.262c-2.222,0-4.325,0.508-6.2,1.415  c-1.941-3.461-5.64-5.804-9.891-5.804c-4.663,0-8.664,2.817-10.406,6.84c-1.91-1.53-4.329-2.451-6.967-2.451  c-6.161,0-11.155,4.995-11.155,11.155c0,1.081,0.162,2.123,0.448,3.111c-4.797,0.054-8.681,3.875-8.845,8.645  c-0.854-0.133-1.728-0.204-2.619-0.204c-9.268,0-16.781,7.513-16.781,16.782c0,9.267,7.513,16.78,16.781,16.78  c4.356,0,8.325-1.66,11.309-4.383c4.762,4.985,11.471,8.098,18.91,8.098c4.301,0,8.357-1.043,11.936-2.883  c2.701,2.56,5.471,7.322,2.877,15.318c0,0,7.505-10.32,3.77-20.197c2.393-2.418,4.317-5.298,5.626-8.497  c1.688,1.026,3.664,1.629,5.784,1.629c6.161,0,11.155-4.995,11.155-11.156C93.573,45.985,91.252,42.333,87.825,40.429z   M82.418,60.081c-1.687,0-3.347-0.468-4.803-1.354l-1.89-1.149l-0.837,2.046c-1.207,2.949-2.964,5.602-5.223,7.886l-0.851,0.861  l0.428,1.133c1.214,3.211,1.077,6.525,0.412,9.442c-0.797-2.93-2.396-5.084-3.996-6.601l-0.97-0.921l-1.191,0.612  c-3.449,1.774-7.176,2.674-11.072,2.674c-6.687,0-12.917-2.668-17.545-7.515l-1.273-1.333l-1.362,1.243  c-2.749,2.509-6.313,3.891-10.037,3.891c-8.213,0-14.895-6.682-14.895-14.895s6.682-14.895,14.895-14.895  c0.774,0,1.558,0.061,2.328,0.181l2.103,0.329l0.073-2.128c0.13-3.784,3.197-6.781,6.98-6.823l2.482-0.028l-0.691-2.383  c-0.248-0.855-0.374-1.726-0.374-2.586c0-5.111,4.158-9.269,9.269-9.269c2.124,0,4.125,0.704,5.789,2.036l1.929,1.545l0.981-2.268  c1.5-3.464,4.904-5.702,8.675-5.702c3.412,0,6.571,1.854,8.246,4.84l0.868,1.549l1.599-0.773c1.684-0.814,3.492-1.227,5.378-1.227  c6.823,0,12.375,5.552,12.375,12.375c0,3.349-1.318,6.487-3.713,8.834l-1.804,1.769l2.208,1.228  c2.946,1.637,4.777,4.742,4.777,8.104C91.687,55.923,87.528,60.081,82.418,60.081z"/><text x="0" y="115" fill="#000000" font-size="5px" font-weight="bold" font-family="'Helvetica Neue', Helvetica, Arial-Unicode, Arial, Sans-serif">Created by Ole Koop</text><text x="0" y="120" fill="#000000" font-size="5px" font-weight="bold" font-family="'Helvetica Neue', Helvetica, Arial-Unicode, Arial, Sans-serif">from the Noun Project</text></svg>