<svg xmlns="http://www.w3.org/2000/svg" xmlns:xlink="http://www.w3.org/1999/xlink" viewBox="0 0 24 30" version="1.1" x="0px" y="0px"><title>45 - Chat Conversation (communication, dialogue, discussion)</title><desc>Created with Sketch.</desc><g stroke="none" stroke-width="1" fill="none" fill-rule="evenodd"><g transform="translate(-339.000000, -540.000000)"><g transform="translate(340.000000, 541.000000)"><path d="M8,11 C8,11.552 7.552,12 7,12 C6.448,12 6,11.552 6,11 C6,10.448 6.448,10 7,10 C7.552,10 8,10.448 8,11" fill="#000000"/><path d="M12,11 C12,11.552 11.552,12 11,12 C10.448,12 10,11.552 10,11 C10,10.448 10.448,10 11,10 C11.552,10 12,10.448 12,11" fill="#000000"/><path d="M4,11 C4,11.552 3.552,12 3,12 C2.448,12 2,11.552 2,11 C2,10.448 2.448,10 3,10 C3.552,10 4,10.448 4,11" fill="#000000"/><path d="M0,17 L0,22 L5,17 L12.228,17 C13.207,17 14,16.207 14,15.228 L14,6.772 C14,5.793 13.207,5 12.228,5 L1.772,5 C0.793,5 0,5.793 0,6.772 L0,17 L0,17 Z" stroke="#000000" stroke-width="2" stroke-linecap="round" stroke-linejoin="round"/><path d="M21.9999,12 L21.9999,17 L18.9999,12 L13.9999,12 L13.9999,6.772 C13.9999,5.793 13.2069,5 12.2279,5 L4.9999,5 L4.9999,1.772 C4.9999,0.793 5.7929,0 6.7719,0 L20.2279,0 C21.2069,0 21.9999,0.793 21.9999,1.772 L21.9999,12 L21.9999,12 Z" stroke="#000000" stroke-width="2" stroke-linecap="round" stroke-linejoin="round"/></g></g></g><text x="0" y="39" fill="#000000" font-size="5px" font-weight="bold" font-family="'Helvetica Neue', Helvetica, Arial-Unicode, Arial, Sans-serif">Created by Oliviu Stoian</text><text x="0" y="44" fill="#000000" font-size="5px" font-weight="bold" font-family="'Helvetica Neue', Helvetica, Arial-Unicode, Arial, Sans-serif">from the Noun Project</text></svg>