<svg xmlns="http://www.w3.org/2000/svg" xmlns:xlink="http://www.w3.org/1999/xlink" viewBox="0 0 24 30" version="1.1" x="0px" y="0px"><title>46 - Chat Conversation (communication, dialogue, discussion)</title><desc>Created with Sketch.</desc><g stroke="none" stroke-width="1" fill="none" fill-rule="evenodd"><g transform="translate(-291.000000, -540.000000)"><g transform="translate(292.000000, 541.000000)"><path d="M8,17 L12.228,17 C13.207,17 14,16.207 14,15.228 L14,6.772 C14,5.793 13.207,5 12.228,5 L1.772,5 C0.793,5 0,5.793 0,6.772 L0,15.228 C0,16.207 0.793,17 1.772,17 L3,17 L3,22 L8,17 L8,17 Z" stroke="#000000" stroke-width="2" stroke-linecap="round" stroke-linejoin="round"/><path d="M16.0001,12 L14.0001,12 L14.0001,6.772 C14.0001,5.793 13.2071,5 12.2281,5 L5.0001,5 L5.0001,1.772 C5.0001,0.793 5.7931,0 6.7721,0 L20.2281,0 C21.2071,0 22.0001,0.793 22.0001,1.772 L22.0001,10.228 C22.0001,11.207 21.2071,12 20.2281,12 L19.0001,12 L19.0001,17 L16.0001,12 L16.0001,12 Z" stroke="#000000" stroke-width="2" stroke-linecap="round" stroke-linejoin="round"/><path d="M8,11 C8,11.552 7.552,12 7,12 C6.448,12 6,11.552 6,11 C6,10.448 6.448,10 7,10 C7.552,10 8,10.448 8,11" fill="#000000"/><path d="M12,11 C12,11.552 11.552,12 11,12 C10.448,12 10,11.552 10,11 C10,10.448 10.448,10 11,10 C11.552,10 12,10.448 12,11" fill="#000000"/><path d="M4,11 C4,11.552 3.552,12 3,12 C2.448,12 2,11.552 2,11 C2,10.448 2.448,10 3,10 C3.552,10 4,10.448 4,11" fill="#000000"/></g></g></g><text x="0" y="39" fill="#000000" font-size="5px" font-weight="bold" font-family="'Helvetica Neue', Helvetica, Arial-Unicode, Arial, Sans-serif">Created by Oliviu Stoian</text><text x="0" y="44" fill="#000000" font-size="5px" font-weight="bold" font-family="'Helvetica Neue', Helvetica, Arial-Unicode, Arial, Sans-serif">from the Noun Project</text></svg>