<svg xmlns="http://www.w3.org/2000/svg" xmlns:xlink="http://www.w3.org/1999/xlink" viewBox="0 0 23 30" version="1.1" x="0px" y="0px"><title>61 - Chat Conversation (communication, dialogue, discussion)</title><desc>Created with Sketch.</desc><g stroke="none" stroke-width="1" fill="none" fill-rule="evenodd" stroke-linecap="round" stroke-linejoin="round"><g transform="translate(-531.000000, -444.000000)" stroke="#000000" stroke-width="2"><g transform="translate(532.000000, 445.000000)"><path d="M4,9 L9,9"/><path d="M4,13 L12,13"/><path d="M0,17 L0,22 L4,17 L14.228,17 C15.207,17 16,16.207 16,15.228 L16,6.772 C16,5.793 15.207,5 14.228,5 L1.772,5 C0.793,5 0,5.793 0,6.772 L0,17 L0,17 Z"/><path d="M19.2283,0 L6.7713,0 C5.7933,0 5.0003,0.793 5.0003,1.772 L5.0003,5 L14.2283,5 C15.2073,5 16.0003,5.793 16.0003,6.772 L16.0003,12 L19.2283,12 C20.2073,12 21.0003,11.207 21.0003,10.228 L21.0003,1.772 C21.0003,0.793 20.2073,0 19.2283,0 L19.2283,0 Z"/></g></g></g><text x="0" y="39" fill="#000000" font-size="5px" font-weight="bold" font-family="'Helvetica Neue', Helvetica, Arial-Unicode, Arial, Sans-serif">Created by Oliviu Stoian</text><text x="0" y="44" fill="#000000" font-size="5px" font-weight="bold" font-family="'Helvetica Neue', Helvetica, Arial-Unicode, Arial, Sans-serif">from the Noun Project</text></svg>