<svg xmlns="http://www.w3.org/2000/svg" xmlns:xlink="http://www.w3.org/1999/xlink" viewBox="0 0 24 30" version="1.1" x="0px" y="0px"><title>33 - Chat (communication, dialogue, discussion)</title><desc>Created with Sketch.</desc><g stroke="none" stroke-width="1" fill="none" fill-rule="evenodd" stroke-linecap="round" stroke-linejoin="round"><g transform="translate(-435.000000, -588.000000)" stroke="#000000" stroke-width="2"><g transform="translate(436.000000, 589.000000)"><path d="M0,22 L10,22 C6.562,22 7,19 7,19 C7,17.88 7.573,16.527 8.105,15.511 C8.878,14.036 9.08,12.296 8.528,10.724 C7.469,7.711 5,8 5,8 C5,8 2.531,7.711 1.472,10.724 C0.92,12.296 1.122,14.036 1.895,15.511 C2.427,16.527 3,17.88 3,19 C3,19 3.437,22 0,22 L0,22 Z"/><path d="M14,0 C9.582,0 6,2.385 6,6 C6,6.858 6.222,7.621 6.588,8.334 C7.284,8.679 8.05,9.363 8.528,10.724 C8.776,11.43 8.864,12.17 8.824,12.904 C9.978,12.432 11,12 11,12 L14,12 C18.418,12 22,9.615 22,6 C22,2.385 18.418,0 14,0 L14,0 Z"/></g></g></g><text x="0" y="39" fill="#000000" font-size="5px" font-weight="bold" font-family="'Helvetica Neue', Helvetica, Arial-Unicode, Arial, Sans-serif">Created by Oliviu Stoian</text><text x="0" y="44" fill="#000000" font-size="5px" font-weight="bold" font-family="'Helvetica Neue', Helvetica, Arial-Unicode, Arial, Sans-serif">from the Noun Project</text></svg>